<mxfile host="app.diagrams.net" modified="2021-04-14T10:04:41.297Z" agent="5.0 (Windows NT 10.0; Win64; x64) AppleWebKit/537.36 (KHTML, like Gecko) Chrome/89.0.4389.114 Safari/537.36" etag="zdoREpyum7O2Aj-wPe3a" version="14.6.0" type="github" pages="2">
  <diagram id="kgpKYQtTHZ0yAKxKKP6v" name="Page-1">
    <mxGraphModel dx="1483" dy="701" grid="1" gridSize="10" guides="1" tooltips="1" connect="1" arrows="1" fold="1" page="1" pageScale="1" pageWidth="2339" pageHeight="3300" math="0" shadow="0">
      <root>
        <mxCell id="0" />
        <mxCell id="1" parent="0" />
        <mxCell id="WUAXPZHOC5QMEnY2nZMM-40" style="edgeStyle=orthogonalEdgeStyle;rounded=0;orthogonalLoop=1;jettySize=auto;html=1;exitX=1;exitY=1;exitDx=0;exitDy=0;" edge="1" parent="1" source="raWUjm0LwEFKpukJs3A3-2" target="WUAXPZHOC5QMEnY2nZMM-19">
          <mxGeometry relative="1" as="geometry" />
        </mxCell>
        <mxCell id="WUAXPZHOC5QMEnY2nZMM-41" style="edgeStyle=orthogonalEdgeStyle;rounded=0;orthogonalLoop=1;jettySize=auto;html=1;exitX=1;exitY=1;exitDx=0;exitDy=0;" edge="1" parent="1" source="raWUjm0LwEFKpukJs3A3-2" target="WUAXPZHOC5QMEnY2nZMM-22">
          <mxGeometry relative="1" as="geometry" />
        </mxCell>
        <mxCell id="raWUjm0LwEFKpukJs3A3-2" value="홈" style="rounded=0;whiteSpace=wrap;html=1;" vertex="1" parent="1">
          <mxGeometry x="1120" y="540" width="120" height="60" as="geometry" />
        </mxCell>
        <mxCell id="raWUjm0LwEFKpukJs3A3-5" value="" style="endArrow=classic;html=1;" edge="1" parent="1">
          <mxGeometry width="50" height="50" relative="1" as="geometry">
            <mxPoint x="1179.5" y="600" as="sourcePoint" />
            <mxPoint x="1179.5" y="660" as="targetPoint" />
            <Array as="points">
              <mxPoint x="1180" y="660" />
            </Array>
          </mxGeometry>
        </mxCell>
        <mxCell id="WUAXPZHOC5QMEnY2nZMM-42" style="edgeStyle=orthogonalEdgeStyle;rounded=0;orthogonalLoop=1;jettySize=auto;html=1;exitX=0.5;exitY=1;exitDx=0;exitDy=0;" edge="1" parent="1" source="raWUjm0LwEFKpukJs3A3-7" target="WUAXPZHOC5QMEnY2nZMM-25">
          <mxGeometry relative="1" as="geometry" />
        </mxCell>
        <mxCell id="WUAXPZHOC5QMEnY2nZMM-46" style="edgeStyle=orthogonalEdgeStyle;rounded=0;orthogonalLoop=1;jettySize=auto;html=1;exitX=0.5;exitY=1;exitDx=0;exitDy=0;" edge="1" parent="1" source="raWUjm0LwEFKpukJs3A3-7" target="WUAXPZHOC5QMEnY2nZMM-30">
          <mxGeometry relative="1" as="geometry" />
        </mxCell>
        <mxCell id="WUAXPZHOC5QMEnY2nZMM-47" style="edgeStyle=orthogonalEdgeStyle;rounded=0;orthogonalLoop=1;jettySize=auto;html=1;exitX=0.5;exitY=1;exitDx=0;exitDy=0;" edge="1" parent="1" source="raWUjm0LwEFKpukJs3A3-7" target="WUAXPZHOC5QMEnY2nZMM-34">
          <mxGeometry relative="1" as="geometry" />
        </mxCell>
        <mxCell id="WUAXPZHOC5QMEnY2nZMM-48" style="edgeStyle=orthogonalEdgeStyle;rounded=0;orthogonalLoop=1;jettySize=auto;html=1;exitX=0.5;exitY=1;exitDx=0;exitDy=0;entryX=0.5;entryY=0;entryDx=0;entryDy=0;" edge="1" parent="1" source="raWUjm0LwEFKpukJs3A3-7" target="WUAXPZHOC5QMEnY2nZMM-39">
          <mxGeometry relative="1" as="geometry" />
        </mxCell>
        <mxCell id="raWUjm0LwEFKpukJs3A3-7" value="게시판" style="rounded=0;whiteSpace=wrap;html=1;" vertex="1" parent="1">
          <mxGeometry x="1120" y="660" width="120" height="60" as="geometry" />
        </mxCell>
        <mxCell id="WUAXPZHOC5QMEnY2nZMM-5" value="회원가입" style="rounded=0;whiteSpace=wrap;html=1;" vertex="1" parent="1">
          <mxGeometry x="1320" y="460" width="120" height="60" as="geometry" />
        </mxCell>
        <mxCell id="WUAXPZHOC5QMEnY2nZMM-6" value="로그인" style="rounded=0;whiteSpace=wrap;html=1;" vertex="1" parent="1">
          <mxGeometry x="1320" y="550" width="120" height="60" as="geometry" />
        </mxCell>
        <mxCell id="WUAXPZHOC5QMEnY2nZMM-7" value="" style="endArrow=classic;html=1;exitX=1;exitY=0.5;exitDx=0;exitDy=0;entryX=0;entryY=0.5;entryDx=0;entryDy=0;" edge="1" parent="1" source="raWUjm0LwEFKpukJs3A3-2" target="WUAXPZHOC5QMEnY2nZMM-6">
          <mxGeometry width="50" height="50" relative="1" as="geometry">
            <mxPoint x="1280" y="700" as="sourcePoint" />
            <mxPoint x="1330" y="650" as="targetPoint" />
          </mxGeometry>
        </mxCell>
        <mxCell id="WUAXPZHOC5QMEnY2nZMM-8" value="" style="endArrow=classic;html=1;entryX=0;entryY=0.5;entryDx=0;entryDy=0;" edge="1" parent="1" target="WUAXPZHOC5QMEnY2nZMM-5">
          <mxGeometry width="50" height="50" relative="1" as="geometry">
            <mxPoint x="1240" y="570" as="sourcePoint" />
            <mxPoint x="1330" y="650" as="targetPoint" />
          </mxGeometry>
        </mxCell>
        <mxCell id="WUAXPZHOC5QMEnY2nZMM-9" style="edgeStyle=orthogonalEdgeStyle;rounded=0;orthogonalLoop=1;jettySize=auto;html=1;exitX=0.5;exitY=1;exitDx=0;exitDy=0;" edge="1" parent="1" source="WUAXPZHOC5QMEnY2nZMM-6" target="WUAXPZHOC5QMEnY2nZMM-6">
          <mxGeometry relative="1" as="geometry" />
        </mxCell>
        <mxCell id="WUAXPZHOC5QMEnY2nZMM-11" value="" style="endArrow=classic;html=1;exitX=1;exitY=0.5;exitDx=0;exitDy=0;entryX=0;entryY=0.5;entryDx=0;entryDy=0;" edge="1" parent="1" source="WUAXPZHOC5QMEnY2nZMM-5" target="WUAXPZHOC5QMEnY2nZMM-13">
          <mxGeometry width="50" height="50" relative="1" as="geometry">
            <mxPoint x="1350" y="640" as="sourcePoint" />
            <mxPoint x="1510" y="500" as="targetPoint" />
          </mxGeometry>
        </mxCell>
        <mxCell id="WUAXPZHOC5QMEnY2nZMM-12" value="" style="endArrow=classic;html=1;exitX=1;exitY=0.75;exitDx=0;exitDy=0;entryX=0;entryY=0.5;entryDx=0;entryDy=0;" edge="1" parent="1" source="WUAXPZHOC5QMEnY2nZMM-5" target="WUAXPZHOC5QMEnY2nZMM-14">
          <mxGeometry width="50" height="50" relative="1" as="geometry">
            <mxPoint x="1350" y="640" as="sourcePoint" />
            <mxPoint x="1510" y="570" as="targetPoint" />
          </mxGeometry>
        </mxCell>
        <mxCell id="WUAXPZHOC5QMEnY2nZMM-13" value="사업자" style="rounded=0;whiteSpace=wrap;html=1;" vertex="1" parent="1">
          <mxGeometry x="1520" y="440" width="120" height="60" as="geometry" />
        </mxCell>
        <mxCell id="WUAXPZHOC5QMEnY2nZMM-14" value="일반회원" style="rounded=0;whiteSpace=wrap;html=1;" vertex="1" parent="1">
          <mxGeometry x="1520" y="510" width="120" height="60" as="geometry" />
        </mxCell>
        <mxCell id="WUAXPZHOC5QMEnY2nZMM-19" value="다이어리" style="rounded=0;whiteSpace=wrap;html=1;" vertex="1" parent="1">
          <mxGeometry x="1900" y="660" width="120" height="60" as="geometry" />
        </mxCell>
        <mxCell id="WUAXPZHOC5QMEnY2nZMM-22" value="마이페이지" style="rounded=0;whiteSpace=wrap;html=1;" vertex="1" parent="1">
          <mxGeometry x="2070" y="660" width="120" height="60" as="geometry" />
        </mxCell>
        <mxCell id="WUAXPZHOC5QMEnY2nZMM-45" style="edgeStyle=orthogonalEdgeStyle;rounded=0;orthogonalLoop=1;jettySize=auto;html=1;exitX=0.5;exitY=1;exitDx=0;exitDy=0;entryX=0.5;entryY=0;entryDx=0;entryDy=0;" edge="1" parent="1" source="WUAXPZHOC5QMEnY2nZMM-23" target="WUAXPZHOC5QMEnY2nZMM-26">
          <mxGeometry relative="1" as="geometry" />
        </mxCell>
        <mxCell id="WUAXPZHOC5QMEnY2nZMM-23" value="선택(화상상담/챗봇)" style="rounded=0;whiteSpace=wrap;html=1;" vertex="1" parent="1">
          <mxGeometry x="1120" y="920" width="120" height="60" as="geometry" />
        </mxCell>
        <mxCell id="WUAXPZHOC5QMEnY2nZMM-44" style="edgeStyle=orthogonalEdgeStyle;rounded=0;orthogonalLoop=1;jettySize=auto;html=1;exitX=0.5;exitY=1;exitDx=0;exitDy=0;entryX=0.5;entryY=0;entryDx=0;entryDy=0;" edge="1" parent="1" source="WUAXPZHOC5QMEnY2nZMM-24" target="WUAXPZHOC5QMEnY2nZMM-23">
          <mxGeometry relative="1" as="geometry" />
        </mxCell>
        <mxCell id="WUAXPZHOC5QMEnY2nZMM-24" value="입력 페이지&lt;br&gt;(개인정보/동물상태)" style="rounded=0;whiteSpace=wrap;html=1;" vertex="1" parent="1">
          <mxGeometry x="1120" y="840" width="120" height="60" as="geometry" />
        </mxCell>
        <mxCell id="WUAXPZHOC5QMEnY2nZMM-43" style="edgeStyle=orthogonalEdgeStyle;rounded=0;orthogonalLoop=1;jettySize=auto;html=1;exitX=0.5;exitY=1;exitDx=0;exitDy=0;" edge="1" parent="1" source="WUAXPZHOC5QMEnY2nZMM-25" target="WUAXPZHOC5QMEnY2nZMM-24">
          <mxGeometry relative="1" as="geometry" />
        </mxCell>
        <mxCell id="WUAXPZHOC5QMEnY2nZMM-25" value="병원상담 게시판" style="rounded=0;whiteSpace=wrap;html=1;" vertex="1" parent="1">
          <mxGeometry x="1120" y="760" width="120" height="60" as="geometry" />
        </mxCell>
        <mxCell id="WUAXPZHOC5QMEnY2nZMM-26" value="예약(접수)" style="rounded=0;whiteSpace=wrap;html=1;" vertex="1" parent="1">
          <mxGeometry x="1120" y="1000" width="120" height="60" as="geometry" />
        </mxCell>
        <mxCell id="WUAXPZHOC5QMEnY2nZMM-27" value="인스타그램" style="rounded=0;whiteSpace=wrap;html=1;" vertex="1" parent="1">
          <mxGeometry x="1280" y="1000" width="120" height="60" as="geometry" />
        </mxCell>
        <mxCell id="WUAXPZHOC5QMEnY2nZMM-28" value="리뷰 가져오기/작성" style="rounded=0;whiteSpace=wrap;html=1;" vertex="1" parent="1">
          <mxGeometry x="1280" y="920" width="120" height="60" as="geometry" />
        </mxCell>
        <mxCell id="WUAXPZHOC5QMEnY2nZMM-29" value="선택&lt;br&gt;(음식점/카페)" style="rounded=0;whiteSpace=wrap;html=1;" vertex="1" parent="1">
          <mxGeometry x="1280" y="840" width="120" height="60" as="geometry" />
        </mxCell>
        <mxCell id="WUAXPZHOC5QMEnY2nZMM-30" value="음식점/카페 게시판" style="rounded=0;whiteSpace=wrap;html=1;" vertex="1" parent="1">
          <mxGeometry x="1280" y="760" width="120" height="60" as="geometry" />
        </mxCell>
        <mxCell id="WUAXPZHOC5QMEnY2nZMM-32" value="출력&lt;br&gt;(닮은 동물)" style="rounded=0;whiteSpace=wrap;html=1;" vertex="1" parent="1">
          <mxGeometry x="1560" y="920" width="120" height="60" as="geometry" />
        </mxCell>
        <mxCell id="WUAXPZHOC5QMEnY2nZMM-33" value="입력(파일 업로드)" style="rounded=0;whiteSpace=wrap;html=1;" vertex="1" parent="1">
          <mxGeometry x="1560" y="840" width="120" height="60" as="geometry" />
        </mxCell>
        <mxCell id="WUAXPZHOC5QMEnY2nZMM-34" value="닮은 동물 찾기&lt;br&gt;게시판" style="rounded=0;whiteSpace=wrap;html=1;" vertex="1" parent="1">
          <mxGeometry x="1560" y="760" width="120" height="60" as="geometry" />
        </mxCell>
        <mxCell id="WUAXPZHOC5QMEnY2nZMM-35" value="예약기능" style="rounded=0;whiteSpace=wrap;html=1;" vertex="1" parent="1">
          <mxGeometry x="1420" y="920" width="120" height="60" as="geometry" />
        </mxCell>
        <mxCell id="WUAXPZHOC5QMEnY2nZMM-39" value="커뮤니티 게시판" style="rounded=0;whiteSpace=wrap;html=1;" vertex="1" parent="1">
          <mxGeometry x="1730" y="760" width="120" height="60" as="geometry" />
        </mxCell>
      </root>
    </mxGraphModel>
  </diagram>
  <diagram id="6yoQo2bE6TiGa_mnWJY3" name="Page-2">
    <mxGraphModel dx="1730" dy="913" grid="1" gridSize="10" guides="1" tooltips="1" connect="1" arrows="1" fold="1" page="1" pageScale="1" pageWidth="827" pageHeight="1169" math="0" shadow="0">
      <root>
        <mxCell id="7L7yaQTqH9W5R-ABc_-u-0" />
        <mxCell id="7L7yaQTqH9W5R-ABc_-u-1" parent="7L7yaQTqH9W5R-ABc_-u-0" />
      </root>
    </mxGraphModel>
  </diagram>
</mxfile>
